<svg xmlns="http://www.w3.org/2000/svg" viewBox="0 0 1000 1000" role="img" aria-label="Sofia Music Supremo default cover">
  <defs>
    <radialGradient id="bg" cx="50%" cy="38%" r="70%">
      <stop offset="0%" stop-color="#2af0ff" stop-opacity="0.95"/>
      <stop offset="35%" stop-color="#7c4dff" stop-opacity="0.92"/>
      <stop offset="70%" stop-color="#ff2bd6" stop-opacity="0.92"/>
      <stop offset="100%" stop-color="#070812"/>
    </radialGradient>
    <linearGradient id="shine" x1="0" x2="1" y1="0" y2="1">
      <stop offset="0" stop-color="#ffffff" stop-opacity="0.72"/>
      <stop offset="1" stop-color="#ffffff" stop-opacity="0"/>
    </linearGradient>
    <filter id="glow" x="-30%" y="-30%" width="160%" height="160%">
      <feGaussianBlur stdDeviation="18" result="blur"/>
      <feMerge>
        <feMergeNode in="blur"/>
        <feMergeNode in="SourceGraphic"/>
      </feMerge>
    </filter>
  </defs>
  <rect width="1000" height="1000" rx="84" fill="#070812"/>
  <rect x="28" y="28" width="944" height="944" rx="74" fill="url(#bg)"/>
  <circle cx="500" cy="505" r="300" fill="#080b16" opacity="0.86"/>
  <circle cx="500" cy="505" r="248" fill="none" stroke="#2af0ff" stroke-opacity="0.34" stroke-width="18"/>
  <circle cx="500" cy="505" r="180" fill="none" stroke="#ff2bd6" stroke-opacity="0.36" stroke-width="12"/>
  <circle cx="500" cy="505" r="70" fill="#070812" stroke="#ffffff" stroke-opacity="0.6" stroke-width="10"/>
  <path d="M610 302v300c0 66-54 119-120 119-53 0-97-33-113-79 26 18 58 28 91 22 45-8 79-45 79-91V302h63z" fill="#ffffff" opacity="0.92" filter="url(#glow)"/>
  <path d="M610 302c58 19 102 56 128 111 14 31 21 62 23 91-31-44-77-72-151-80V302z" fill="#ffffff" opacity="0.92" filter="url(#glow)"/>
  <path d="M115 170c155-108 326-139 512-91" stroke="url(#shine)" stroke-width="30" stroke-linecap="round" opacity="0.5"/>
  <text x="500" y="855" text-anchor="middle" font-family="Inter, Arial, sans-serif" font-size="54" font-weight="900" fill="#fff" letter-spacing="4">SOFIA MUSIC</text>
  <text x="500" y="912" text-anchor="middle" font-family="Inter, Arial, sans-serif" font-size="28" font-weight="800" fill="#d8faff" letter-spacing="7">SUPREMO</text>
</svg>
